<svg xmlns="http://www.w3.org/2000/svg" xmlns:xlink="http://www.w3.org/1999/xlink" version="1.1" x="0px" y="0px" viewBox="0 0 100 125" enable-background="new 0 0 100 100" xml:space="preserve"><g><path d="M50,5C34.362,5,21.685,17.677,21.685,33.315c0,4.49,1.045,8.735,2.905,12.507l0.279,0.583L49.995,95l24.913-48.184   l0.14-0.286c2.086-3.945,3.267-8.443,3.267-13.216C78.315,17.677,65.638,5,50,5z M48.115,25.309v0.816v2.449   c0,1.633-1.633,1.633-1.633,3.266v14.695c0,0.816-0.817,1.633-1.633,1.633h-1.633c-0.816,0-1.633-0.817-1.633-1.633V31.84   c0-1.633-1.633-1.633-1.633-3.266v-2.449v-5.715c0-0.816,0.816-1.633,1.633-1.633c0.408,0,0.408,0.498,0.408,0.816v6.531   c0,0.319,0,0.816,0.409,0.816c0.408,0,0.408-0.498,0.408-0.816v-6.531c0-0.319,0-0.816,0.408-0.816h1.225h0.408   c0.408,0,0.408,0.498,0.408,0.816v6.531c0,0.319,0,0.816,0.408,0.816c0.409,0,0.409-0.498,0.409-0.816v-6.531   c0-0.319,0-0.816,0.408-0.816c0.816,0,1.633,0.816,1.633,1.633V25.309z M60.049,46.535c0,0.816-0.816,1.633-1.633,1.633h-1.633   c-0.817,0-1.633-0.817-1.633-1.633v-9.796c-0.816,0-1.633-0.817-1.633-1.633v-6.531c0-1.633,0-5.715,0.817-7.347   c1.032-2.065,4.081-2.449,5.714-2.449h0.001V46.535z" fill="orange"/></g></svg>