<svg xmlns="http://www.w3.org/2000/svg" xmlns:xlink="http://www.w3.org/1999/xlink" version="1.1" x="0px" y="0px" viewBox="0 0 100 125" enable-background="new 0 0 100 100" xml:space="preserve"><g><g><path d="M58.727,29.506v8.197c1.929-0.368,3.395-2.062,3.395-4.101C62.122,31.566,60.656,29.874,58.727,29.506z"/><path d="M50,5C34.362,5,21.685,17.677,21.685,33.315c0,4.49,1.045,8.735,2.905,12.507l0.279,0.583L49.995,95l24.913-48.184    l0.14-0.286c2.086-3.945,3.267-8.443,3.267-13.216C78.315,17.677,65.638,5,50,5z M58.727,41.098v2.559    c0,0.94-0.76,1.697-1.697,1.697H40.057c-0.937,0-1.697-0.758-1.697-1.697V23.289c0-0.938,0.76-1.697,1.697-1.697H57.03    c0.937,0,1.697,0.759,1.697,1.697v2.822c3.804,0.397,6.789,3.584,6.789,7.491C65.516,37.512,62.531,40.7,58.727,41.098z" fill="green"/></g></g> </svg>