<svg xmlns="http://www.w3.org/2000/svg" xmlns:xlink="http://www.w3.org/1999/xlink" version="1.1" x="0px" y="0px" viewBox="0 0 100 125" enable-background="new 0 0 100 100" xml:space="preserve"><path d="M50,5C34.362,5,21.685,17.677,21.685,33.315c0,4.49,1.045,8.735,2.905,12.507l0.279,0.583L49.995,95  l24.913-48.184l0.14-0.286c2.086-3.945,3.267-8.443,3.267-13.216C78.315,17.677,65.638,5,50,5z M37.768,25.377  c0-3.552,4.461-5.558,8.724-5.558h7.105c4.263,0,8.634,2.006,8.634,5.558v1.785H37.768V25.377z M62.232,42.118  c0,1.421-1.529,2.842-2.949,2.842H40.808c-1.421,0-3.04-1.421-3.04-2.842v-2.805h24.463V42.118z M61.135,35.537H38.865  c-1.22,0-2.218-0.998-2.218-2.219s0.998-2.219,2.218-2.219h22.271c1.22,0,2.219,0.998,2.219,2.219S62.355,35.537,61.135,35.537z" fill="red"/></svg>